<svg id="Layer_47_Image" data-name="Layer 47 Image" xmlns="http://www.w3.org/2000/svg" viewBox="0 0 1920 420"><defs><style>.cls-1{fill:#040404}.cls-2{fill:#fdfdfc}.cls-5{fill:#e0dbd5}</style></defs><path class="cls-2" d="M952.45 228.02c.44 2.48.65 3.7.85 4.83-2.19.8-3.23-.48-2.59-2.44.12-.38.48-.69 1.75-2.39ZM946.67 224l1.44 1.89c-.31.16-.61.32-.92.49-.17-.79-.35-1.58-.52-2.37Z"/><path class="cls-5" d="M1631.89 59.9c.1-.81.19-1.62.33-2.79 1.63 1.51 1.47 2.36-.15 2.95l-.18-.17Z"/><path class="cls-5" d="M-10-4.64h1940.01V420H-10z"/><path d="M1896.36 410.94c-8.57-1.5-17.46-1.36-26.22-1.51-12.66-.22-25.34.17-37.99-.14-18.09-.44-36.2 1.3-54.28-1.15-6.9-.93-13.93-.17-20.95-1.22-6.96-1.04-14.19-.09-21.3-.31-6.98-.22-13.98-1.38-20.93-1.11-9.51.37-18.82-1.71-28.27-1.52-.44 0-1.02.19-1.31-.02-3.41-2.43-7.6-.09-10.86-1.54-3.97-1.76-7.81-.66-11.69-1.01.05 1.16.19 2.29.37 3.42l-3.42-3.45-24.16-4.07c-5.42-.22-10.77-.12-16.25-1.04-8.13-1.37-16.52-1.3-24.8-1.54-7.96-.23-15.94-.07-23.91-.08h-32.62c-1.77-2.3-3.46-4.51-5.15-6.71-4.46.47-8.75 1.3-13.04 1.31-13.16 0-26.36.85-39.45-1.31l-13.67-.05c-4.75-.4-9.5-.92-14.26-1.18-9.86-.54-19.73-.94-29.6-1.39-.44-.02-.96.15-1.32-.02-5.25-2.58-11.11-.82-16.58-2.46-4.08-1.23-8.77-.41-12.83-1.67-5.91-1.83-12.02-1.81-17.93-2.25-17.37-1.29-34.86.98-52.26-1.46-6.24-.88-12.59.05-18.96-1.23-5.69-1.14-11.69-.63-17.58-1.3-9.78-1.11-19.69-.51-29.59-1.34-17.13-1.43-34.39.77-51.59-1.42-9.77-1.25-19.7.29-29.61-1.25-7.38-1.15-15.08-.1-22.63-.32-7.43-.22-14.84-1.09-22.27-1.16-10.1-.1-20.19.42-30.28.89-13.13.61-26.39 1.31-39.61-.8-7.07-1.13-14.37-.61-21.59-1.25-13.13-1.17-26.37-.67-39.59-1.29-21.73-1.02-43.54-.36-65.31-.24-4.98.03-9.92.11-14.98.96-7.04 1.18-14.35.78-21.57 1.41-9.48.83-19.09.23-28.64.21-1.53 0-3.17.17-4.57-.3-6.79-2.27-13.95-2.52-20.91-3.45-8.65-1.16-17.47-.44-26.26-1.31-14.22-1.4-28.58.04-42.93-1.26-10.38-.94-21.02-1.09-31.61.75-7.24 1.26-14.82.88-22.24 1.33-13.73.83-27.54.49-41.31.22-13.87-.27-27.78 1.24-41.61-1.22-4.9-.87-10.11-.33-14.88-1.57-10.02-2.59-20.3-3.35-30.44-4.98-8.17-1.31-16.59-1.22-24.9-1.5-6.88-.22-13.78-.27-20.66-.03-9.87.35-19.71-.6-29.64 1.06-7.25 1.22-14.83 1.03-22.24 1.34-17.08.71-34.21.23-51.31.23-1.33 0-3.05.53-3.93-.1-2.46-1.77-5.11-.9-7.67-1.24-2.55-.34-5.05-1.03-7.6-1.25-6.52-.56-13.29-.08-19.51-1.72-4.21-1.1-8.83.46-12.6-2.32-9.31-.54-17.39-5.68-26.48-7.06-.67-.1-1.21-1.05-1.81-1.6.91-1.04 1.68-1.92 2.76-3.15-11.18-.76-21.7.04-32.25-1.24-7.93-.96-16.12-.05-24.26.71-13.55 1.26-27.27-.07-40.92 1.53-9.35 1.09-18.83 1.03-28.25 1.48-.44.02-1.01-.18-1.31.02-3.45 2.27-7.3.91-10.95 1.3-3.87.42-7.73.87-11.6 1.31l-94.51 5.46-36.77 1s-47.91-2.11-60.65-2.98C11.3 347.96 0 354.37 0 354.37v69.33h1920V412c-7.86-.48-15.69.34-23.64-1.06ZM1480 397.31l.05-4.05c.06 1.35.13 2.7.19 4.05h-.25Z" style="fill:#739197"/><path d="M675.36 173.45c-.08-2.44-.08-4.88-.12-7.32-.36 0-.7-.03-1.04-.05.08-5.02.02-10.19-.87-14.96-.99-5.31-1.36-11.26-3.12-16.41 0-.13-.03-.26-.03-.4-.08-7.84-1.44-15.51-2.77-23.19-.4-2.32-.88-4.62-1.32-6.93-1.03-5.47-1.51-11.12-3.22-16.37-2.29-7.03-4.96-13.96-8.18-20.67-4.57-9.54-10.3-18.3-16.22-27.02-6.25-9.22-13.1-17.84-20.75-25.94-6.75-7.16-14.91-12.52-22.32-18.83H352.73c-9.64 10.78-19.28 21.57-28.89 32.37-.26.29-.27.79-.4 1.19.52.9 1.04 1.8 1.2 2.08-5.54 7.14-10.83 13.76-15.91 20.55-8.7 11.64-13.8 25-18.15 38.7-2.86 9-4.3 18.34-5.63 27.61-.91 6.31.07 12.87-.26 19.29-.32 6.41 3.53 12.12 2.73 18.54 2.81 7.35 5.2 14.9 8.53 22 5.93 12.62 13.37 24.42 20.65 36.32 10.54 17.24 22.35 33.5 36 48.32 7.75 8.42 16.52 15.91 24.91 23.73 2.87 2.68 5.8 5.37 9.04 7.55 8.54 5.75 16.53 12.26 25.77 17.11 5.85 3.07 11.75 6.12 17.85 8.42 9.17 3.47 18.71 5.77 28.55 7.15 5.48.77 11.07-.03 16.24 1.32 5.52 1.44 10.9.85 16.33.96 3.19.06 6.41-1.12 9.61-1.09 6.79.06 13.35-1.29 19.86-2.85 5.99-1.44 11.92-3.16 17.77-5.08 4.85-1.59 9.48-3.83 14.32-5.47 13.68-4.64 26.11-11.71 38.39-19.15 10.65-6.46 20.03-14.55 29.17-22.82 13.34-12.07 25.55-25.28 35.39-40.49 5.34-8.26 10.39-16.69 13.75-25.96 1.74-4.8 2.65-9.87 3.7-14.91 1.2-5.78 2.29-11.42 2.1-17.31Z" style="fill:#dea13d"/><path class="cls-2" d="M838.62 170.08c-1.82-.1-3.43-.26-5.04-.26-11.11-.02-22.22-.18-33.32.04-11.19.22-22.37.84-33.55 1.29-5.17 2.8-11.28-.16-16.45 2.66-7.39-.72-14.96 1.51-22.23-1.32-.38-.15-.88 0-1.32 0-10.75-.05-21.41-2.07-32.22-1.41-6.64.41-13.32.14-19.98.18-4.39.1-7.86-2.5-11.28-4.52-4.95-2.93-9.95-3.96-15.58-3.69-4.54.22-9.25 1-13.58-1.22-4.77-2.44-9.52-4.92-14.14-7.63-.85-.5-1.02-2.18-1.55-3.43 4.23-2.87 8.89-3.15 13.27-3.43 12.94-.83 25.92-1.11 38.88-1.61 8.79.6 17.4-2.37 26.21-1.24 5.25-2.36 10.81-1.21 16.22-1.23 4.07-.02 8.14.97 12.23 1.18 4.21.22 8.66-.78 12.6.27 5.03 1.33 10.1.23 14.91 1.27 7.2 1.57 14.49.28 21.55 1.39 6.12.96 12.32.2 18.21 1.37 5.04 1 10.09.2 14.91 1.21 10.95 2.3 21.96.4 33.12 1.44 4.25-7.63 10.35-13.61 16.71-19.24 3.87-3.43 9.14-4.59 14.26-4.92 5.75-.37 11.55-.22 17.32-.02 2.75.09 5.57.54 8.21 1.32 7.97 2.34 16.28 2.88 24.3 5.11 5.13 1.43 10.92.42 16.14 1.66 9.2 2.19 18.41.59 27.58 1.19 4.82.32 9.33-1.23 13.94-2.19 3.55-.73 7.17-1.77 10.73-1.69 5.08.12 10.16.86 14.8 3.5 3.69 2.1 7.63 3.77 11.6 5.69 6.93 0 14.04-.22 21.14.07 5.4.22 10.78 1.1 15.7 1.63 2.99-1.64 5.28-3.56 7.89-4.2 5.65-1.39 11.03-4.2 17.41-1.79 4.1 1.55 8.93 1.34 13.45 1.59 12.95.7 25.9 1.23 41.45 1.94 3.59.54 4.85 7.03 9.06 10.11h33.36c.73 2.18 1.51 4.53 2.28 6.81-3.87 3.5-6.69 7.03-5.71 12.07-3.5 5.17-8.46 6.95-14.21 6.38-7.95-.78-15.72 1.04-23.53 1.67-4.5.36-9.11.45-13.56 1.14-16.26 2.55-32.61.52-48.89 1.28-3.2.15-6.36 1.02-9.56 1.23-3.32.22-6.74.53-9.98-.03-14.04-2.42-28.2-.25-42.21-1.46-5.86-.51-11.85-.26-17.52-1.38-4.38-.86-8.64-.65-12.94-1.13-4.07-.46-8.05-1.86-12.23-1.26-1.66.24-3.29.72-5.19 1.16-1.23-.63-2.74-1.42-4.65-2.4h-6.06l-14.08-.11c-6.49 0-13.59-.35-20.64.08-10.6.65-21.01-1.61-31.55-1.42-4.44-2.91-10.02.3-14.46-2.66-.15-.1-.44 0-.66 0-9.37-.54-18.74-1.09-28.46-.61l-3.09-.45ZM226.91 89.35c-12.04-5.19-24.75-7.67-37.71-8.81-8.93-.79-17.89.45-26.91-1.18-7.45-1.35-15.21-.57-22.87-1.23-10.8-.94-21.66-1.01-32.43-2.85-4.87-.83-9.9-.17-14.91-1.27-4.24-.93-8.85-.02-13.28-.25-4.53-.23-9.04-.85-13.56-1.31v.1l-15.9-1.48-3.63-.31-.25.41c-7.54-.01-15.08.15-22.61-.08-7.62-.23-25.24-.84-32.86-1.29v38.67c7.61 1.65 25.02 4.41 32.99 4.05.33-.01.7.91 1.05 1.39l41.67 2.18v.33c4.66.02 9.33.1 13.99.02 1.48-.02 3.13-.12 4.39-.78 7.72-4.05 16.36-3.49 24.53-4.23 10.39-.94 20.04-3.76 29.63-7.32 5.56-2.06 11.16-4.95 17-4.79 15.68.44 31.23-1.73 46.87-1.53 6 .07 11.99.01 18.39.01 2.8-1.98 5.88-4.16 9.57-6.76-1.48-.79-2.3-1.31-3.18-1.69ZM1918.58 116.46c-1.45.37-2.86.88-4.28 1.39-2.15-.29-4.3-.63-6.45-.84-2.84-.66-5.47-1.28-8.09-1.87-6.41-1.44-12.86-2.69-19.22-4.33-8.89-2.29-17.55-5.71-26.98-5.02-.66.05-1.41.2-1.97-.04-6.38-2.76-13.07-.55-19.57-1.29-2.5 1.94-5.44 1.11-8.22 1.38-2.98.29-5.92.94-8.89 1.28-4.51.52-9.13.45-13.52 1.45-6.98 1.6-13.97 2.66-21.12 2.61 0 .19-.02.38-.03.57-8.68.23-17.51 1.08-25.93 3.05-4.6 1.07-10.43 1.49-15.43 3.17-5.02.43-9.93 1.67-14.92 2.31-6.66.86-13.51 1.07-20.21 1.22-9.01.2-17.42 2.33-25.89 4.66-4.15 1.14-8.17 2.51-12.57 2.34-4.19-.16-8.4-.03-12.67-.03-1.69 1.79-3.31 3.52-4.9 5.21 1.48 1.64 2.65 2.94 3.73 4.12h11.34c6.32 2.67 9.4 8.56 14.5 13.1.97.24 2.61.71 4.27 1.04 3.34.66 6.96 2.33 9.99 1.6 4.27-1.03 8.69-1.46 12.94-3.17 6.25-2.51 12.74-5.09 19.19-4.63 4.17 1.97 8.04 3.37 11.45 5.49 7.1 4.41 14.47 4.98 22.27 2.59-.19-.75-.36-1.52-.52-2.28.25-.05.48-.11.68-.19 2.82-1.01 3.88-1.78 6.8-1.62 4.21.22 8.61.34 12.59-1.4 1.81-.79 2.81-1.94 4.04-3.16.59-.22 1.18-.44 1.77-.65 1 .44 1.97 1.23 2.93 1.22 3.81-.02 7.1 1.6 10.18 3.38 8.74 5.07 18.19 2.98 27.42 3.19 6.25-2.91 11.53-.07 16.36 2.54 2.17.33 3.88.54 5.56.86 3.54.66 7.05 1.72 10.62 2 5.67.44 10.85-1.73 15.95-3.91 6.36-2.72 12.31-3.64 18.4 1.28 3.96 3.19 8.87 4.03 13.67.86.03-.02.07-.04.1-.06.56.81 1.08 1.65 2.06 2.36.8.58 4.81 2.41 7.52 3.26-.06.62-.34 1.26-.93 1.93 1.64 1.77 3.17 3.46 4.75 5.11.85.9 11.78 1.73 12.67 2.59V116.2c-.47.05-10.95.12-11.43.25Z"/><path class="cls-1" d="M1762.25 117.37c-6.03-14.51-13.54-28.29-22.48-41.13-11-15.81-24.3-29.44-41.38-39.02-6.6-3.7-12.28-8.98-19.74-11.75-.48.74-1.25 1.41-1.37 2.18-1.92 12.28-3.65 24.58-5.66 36.85-.98 5.99-3.03 11.85-3.57 17.86-1.39 15.49-7.18 30.03-9.29 45.29-1.32 9.51-4.2 18.72-4.58 28.42-.36 9.39-1.07 18.85-2.7 28.09-2.67 15.11-2.89 30.3-2.08 45.45.68 12.58.42 25.18 1.27 37.72.66 9.77 2.63 19.45 3.56 29.22.58 6.11 1.52 12.1 2.66 18.13 2.23 11.75 5.56 23.11 9.28 34.47 4.32 13.17 7.32 26.77 10.99 40.16 1.12 4.09 2.57 8.08 3.86 12.12.25 6.44 2.96 12.34 4.1 18.59h-26.67c-.1-7.86-2.43-15.26-4.65-22.69-1.25-11.77-5.72-22.62-9.4-33.72-2.79-8.41-6.29-16.59-8.06-25.33-1.51-7.45-2.73-14.98-4.64-22.33-2.15-8.28-2.67-16.76-4.02-25.13-2.73-16.99-1.19-34.04-.8-51.03.23-10.01 2.12-20.02 2.5-30.11.19-5.18 1.39-10.31 1.92-15.49.14-1.38-.73-2.84-.74-4.26-.08-7.99-.57-16.03.09-23.97.89-10.79 2.04-21.62 5.2-32.06.62-2.05 1.99-3.9 2.48-5.96 1.08-4.64 2.15-9.32 2.64-14.05 1.21-11.71 4.27-23.05 6.47-34.57 1.22-6.38 2.07-12.83 3.08-19.24 1.62-.59 1.78-1.45.15-2.95-.14 1.16-.23 1.98-.33 2.79-4.05 3.43-6.17 8.31-9.26 12.47-9.62 12.92-19.09 25.96-31.13 36.83-5.89 5.32-11.68 10.71-16.93 16.68-7.92 9.02-17.37 16.35-26.63 23.87-.78.63-1.93.82-3.38 1.41-5.92 7.59-12.2 15.64-18.88 24.2-1.38-7.61-.28-14.41 1.24-20.99 2.2-9.49 4.8-18.93 7.93-28.15 2.92-8.61 6.95-16.83 10.16-25.35 7.4-19.65 20.21-36.11 31.37-53.54 1.15-1.8 2.74-3.32 5.19-6.24-2.57.52-3.58.53-4.41.91-11.19 5.11-20.87 12.69-31.19 19.24-16.05 10.2-31.89 20.75-48.25 30.42-8.38 4.95-17.71 8.28-26.58 12.39-10.85 5.02-21.64 10.17-32.53 15.09-11.67 5.27-23.38 10.48-35.19 15.43-8.4 3.52-17 6.53-25.89 8.72-3.56.88-6.89.56-10.77.56 0-1.69-.37-3.1.06-4.21 5.95-15.66 11.75-31.5 21.47-45.26 7.88-11.16 16.8-21.61 27.79-30.03 4.71-3.61 9.3-7.39 13.82-11.24 5.4-4.59 11.66-7.72 17.85-10.97 10.62-5.58 21.16-11.31 31.92-16.6 17.93-8.83 36.6-15.81 55.73-21.62 3.35-1.02 12.33-5.73 15.03-8.54h135.59c2.73 1.57 10.27 7.55 12.78 9.4 4.48 3.3 9.47 4.88 14.84 6.08 10.84 2.43 19.54 8.35 26.4 17.19 2.96 3.81 6.68 7.04 10.14 10.44 1.24 1.22 2.88 2.03 4.11 3.25 12.28 12.15 20.15 26.89 24.05 43.56 1.17 5.01 3.62 10.55.91 14.49.41 4.56.71 7.75.99 10.95-.26 6.81-1 13.55-3.06 20.07-1.69 5.37-3.64 10.65-5.48 15.98-2.12 4.14-4.2 8.31-6.38 12.42-1.15 2.18-2.47 4.27-4.47 7.7-.96-4.11-1.53-6.71-2.19-9.3-.36-1.43-.85-2.83-1.28-4.24-.68-2.69-1.07-5.5-2.09-8.05-3.73-9.35-7.68-18.62-11.54-27.92Z"/><path class="cls-1" d="m1468.73 420-.21-32.12c-1.49-7.84-.25-15.88-1.37-23.64-.96-6.62-.37-13.21-1.18-19.71-2.69-21.65-.72-43.34-1.11-65.01-.09-4.77.55-9.62 1.48-14.31.44-2.2 1.08-3.92.06-6.22-.57-1.28.82-3.3.83-4.98.09-10.83.05-21.67-.23-32.54-3.68 9.69-7.54 19.23-12.61 28.2-4.82 8.52-9.76 16.98-14.84 25.35-7.23 11.91-14.69 23.68-21.92 35.58-1.77 2.9-3.05 6.1-4.96 9.99-.5-1.46-1.01-2.28-1.03-3.11-.46-16.1 2.69-31.59 8.31-46.6 3.81-10.16 7.53-20.46 14.17-29.17 3.44-4.51 7.59-8.6 11.97-12.22 4.45-3.67 8.26-7.82 13.01-12.54-1.82-.48-2.8-1.08-3.6-.89-9.26 2.11-18.54 4.19-27.72 6.59-6.25 1.64-12.52 3.41-18.53 5.77-11.04 4.34-22.53 7.49-33.16 12.87-8.89 4.5-17.83 8.89-26.72 13.38-3.3 1.67-6.49 3.54-9.79 5.19-.66.33-1.62.05-3.37.05 1.23-2.29 1.95-4.02 3.01-5.51 1.66-2.32 3.41-4.61 5.38-6.68 10.38-10.92 20.73-21.86 31.33-32.56 3.37-3.4 7.42-6.16 11.27-9.06 7.73-5.82 16.78-7.83 26.18-8.79 3.03-.31 6.03-1.03 9.07-1.15 6.58-.26 12.98 1.05 19.4 2.37 6.17 1.27 12.46 1.93 18.82 2.88 5.95-3.95 11.96-7.89 17.93-11.9 6.66-4.47 13.57-7.67 22-6.98 4.28.35 8.83 1.07 13.03-1 11.26 1.89 23.23.28 33.48 7.07 10.61 7.03 18.36 16.14 21.44 28.74.18.76-.15 1.64-.26 2.65-5.88-3.09-11.36-6.12-16.98-8.88-8.23-4.04-16.75-6.93-26.1-7.33-5.17-.22-10.26-1.87-15.44-2.33-4.85-.43-9.77-.27-14.65-.13-4.11.11-8.21.56-11.6.81-3.46 3.17-6.21 5.7-8.94 8.2 1.46.46 3.32 1.64 5.08 1.49 7.89-.66 15.14 2.08 22.34 4.32 15.59 4.85 27.43 14.14 32.49 30.44.19.61.69 1.18.69 1.77-.03 8.57 1.13 17.21-1.26 25.65-.37 1.3-1.36 2.42-2.58 4.49-1.08-2.9-2.01-4.78-2.48-6.77-4.63-19.6-16.76-32.27-35.11-40.14-6.14-2.63-12.98-3.54-18.58-7.5-.4-.29-1.24.04-2.45.12 2.03 4.91 1.28 9.86 1.32 14.76.07 10.88-.14 21.77.06 32.65.32 17.68.3 35.39 1.57 53.01.59 8.14.78 16.24 1.11 24.37.08 1.87.99 3.7 1.25 5.58 1.29 9.23 2.82 18.43 2.76 27.81-.01 1.85.9 3.7 1.38 5.55-.04 1.54-.17 3.09-.1 4.62.41 9.15.87 18.3 1.31 27.45h-14.67ZM1873.19-4.64c4.18 8.98 9.29 22.86 9.48 32.95.27 13.96-2.06 27.41-5.55 40.78-.15.56-.55 1.05-1.04 1.95-2.88-1.77-4.53-4.17-6.13-6.83-7.21-11.94-14.38-23.92-21.99-35.6-3.7-5.67-7.9-11.17-12.69-15.93-5.28-5.26-12.2-8.3-19.36-10.71-.03-.67-13.71-5.96-13.74-6.61h71.02ZM194.7 358.18c-2.98 3.11-5.97 6.22-8.95 9.33-1.15 1.19-2.27 2.41-3.44 3.58-7.3 7.35-14.04 15.17-20.28 23.45-2.73 3.62-5.95 6.87-8.97 10.27-4.5 5.07-10.86 12.46-15.37 17.53H58.2c.28-.81 2.16-4.2 2.71-4.72 9.62-9.22 18.2-19.51 28.74-27.76 4.01-3.14 7.08-7.16 10.67-10.7 5.47-5.39 10.77-10.95 16.14-16.44 1.48-1.34 3.01-2.63 4.44-4.02 11.51-11.1 23.78-21.24 37.9-28.85 8.87-4.78 17.91-9.3 27.1-13.41 4.67-2.09 9.76-3.51 14.81-4.37 4.85-.82 9.28-2.73 13.93-4.04 8.04-2.26 16.02-4.78 24.06-7.05 1.33-.38 2.85-.05 4.88-.05-.75 1.19-1.12 2.14-1.79 2.79-8.64 8.42-16.25 17.71-23.84 27.07-7.34 9.04-15.22 17.65-22.85 26.45-.22.25-.28.64-.41.96ZM262.04 192.81c-7.04 1.28-14.07 2.59-21.08 3.99-7.01 1.41-13.98 3.06-21 4.38-12.76 2.41-24.84 6.84-36.71 11.92-5.95 2.54-11.76 5.43-17.7 7.99-8.67 3.73-16.87 8.28-24.73 13.46-5.02 3.31-10.04 6.64-15 10.04-7.24 4.95-14.99 9.08-21.85 14.69-6.95 5.68-13.96 11.26-20.25 17.65-6.46 6.57-12.35 13.62-17.15 21.53-3.64 6-7.37 11.95-10.95 17.98-4.95 8.32-9.81 16.7-14.7 25.06-3.35 5.73-6.68 11.47-10.03 17.23.26.77.54 1.59.86 2.55-.04.02-.07.04-.1.06l-.76-2.61-1.09.39c-2.9.73-10.49 1.6-11.58 1.14-2.17-3.29 2.72-6.36-.03-8.9 1-2.16 2.12-4 2.74-6 2.58-8.38 5.23-16.74 7.44-25.22 2.52-9.67 4.66-19.44 6.88-29.19 2.43-10.68 4.47-21.45 7.21-32.05 2.69-10.43 5.55-20.8 7.3-31.45.85-5.17 1.76-10.31 2.36-15.54.37-3.24.64-6.48.89-9.72.27-3.42.78-6.83.89-10.26.26-7.89.34-15.78.5-23.68-.07-7.24-.13-14.48-.21-21.72-.05-4.89-.12-9.79-.19-14.68-.34-1.56-.71-3.11-1.02-4.67-.77-3.85-1.43-7.73-2.35-11.55-.25-1.03-1.26-1.87-2.23-3.23-1.08 1.73-1.85 2.9-2.55 4.11-2.75 4.76-5.48 9.52-8.22 14.29-.92 2.13-1.63 4.39-2.8 6.37-5.04 8.5-9.46 17.3-13.25 26.42-.39.94-1.12 1.74-1.7 2.6-.3 4.25-2.9 7.63-4.38 11.43-4.39 11.27-8.9 22.49-13.45 33.69-.36.89-5.93 14.72-6.63 15.46V423.7h34.92s9.15-12 13.98-17.06c7.53-7.91 14.88-16 22.49-23.82 2.87-2.95 6.27-5.37 9.44-8.02 1.05-1.2 1.96-2.57 3.18-3.56 7.53-6.14 15.1-12.22 22.71-18.26 4.61-3.66 9.5-6.97 13.92-10.85 7.92-6.95 15.61-14.17 23.34-21.35 6.13-5.69 12.24-11.39 18.2-17.26 5.69-5.6 11.07-11.52 16.78-17.1 7.02-6.86 14.27-13.48 21.37-20.26 7.75-7.4 15.46-14.83 23.14-22.3 4.95-4.81 10.02-9.52 14.68-14.61 10.98-11.99 21.74-24.18 32.95-36.7-1.71.08-3.12 0-4.47.24ZM1227.12 103.41c-1.05-.12-2.64.16-3.56-.5-4.38-3.15-9.63-2.87-14.46-3.38-7.47-.79-15.07-.39-22.61-.42-1.53 0-3.1.14-4.6.46-4.13.88-4.12.93-8.3-1.26 12.02-12.92 26.52-15.88 44.07-6.85 11.38-9.85 23.88-17.85 38.97-21.96-2.17 6.53-7.59 12.71-29.51 33.91ZM1356.48 104.55c-5.96-2.05-12.26-1.52-19.38-1.17-.77.52-2.2 1.47-4.07 2.72l-8.03-.4c7.46-6.11 14.93-9.63 24.51-6.65 2.06-7.8 7.77-11.33 15.52-12.94-.93 7.11-5.43 12.21-8.56 18.44Z"/></svg>